<?xml version="1.0" encoding="UTF-8"?>
<svg width="40px" height="41px" viewBox="0 0 40 41" version="1.1" xmlns="http://www.w3.org/2000/svg" xmlns:xlink="http://www.w3.org/1999/xlink">
    <title>07BC84E4-26AB-49BC-A224-B3977711EEF8</title>
    <g id="Page-1" stroke="none" stroke-width="1" fill="none" fill-rule="evenodd">
        <g id="Gallery_2-&amp;-3-wheel" transform="translate(-606.000000, -1554.000000)" fill-rule="nonzero">
            <g id="Group-3-Copy" transform="translate(362.000000, 1540.000000)">
                <g id="Group-2" transform="translate(243.999985, 14.399999)">
                    <rect id="Rectangle_64" fill="#F6F6F6" transform="translate(19.999999, 19.999999) rotate(90.000000) translate(-19.999999, -19.999999) " x="0" y="0" width="39.9999976" height="39.9999976"></rect>
                    <path d="M19.6327988,8.79999948 C19.3503988,8.79999948 19.1295989,9.02159946 19.1295989,9.30479945 L19.1279989,23.8671986 L16.090399,20.8295988 C15.8911991,20.6303988 15.5759991,20.6303988 15.3759991,20.8295988 C15.1759991,21.0287987 15.1759991,21.3423987 15.3759991,21.5423987 L19.2759989,25.4407985 C19.3711988,25.5359985 19.4991988,25.5895985 19.6319988,25.5895985 C19.7647988,25.5895985 19.8927988,25.5367985 19.9879988,25.4407985 L23.8895986,21.5391987 C24.0895986,21.3391987 24.0895986,21.0263987 23.8895986,20.8263988 C23.6895986,20.6263988 23.3767986,20.6263988 23.1767986,20.8263988 L20.1359988,23.8671986 L20.1359988,9.30479945 C20.1359988,9.02239946 19.9135988,8.79999948 19.6311988,8.79999948 L19.6327988,8.79999948 Z M7.70479954,19.8519988 C7.42159956,19.8519988 7.19999957,20.0727988 7.19999957,20.3551988 L7.19999957,30.5111982 C7.19999957,30.7935982 7.42159956,31.0143982 7.70479954,31.0143982 L31.5639981,31.0143982 C31.8471981,31.0143982 32.0687981,30.7935982 32.0687981,30.5111982 L32.0687981,20.3551988 C32.0687981,20.0727988 31.8471981,19.8519988 31.5639981,19.8519988 C31.2807981,19.8519988 31.0591981,20.0727988 31.0591981,20.3551988 L31.0591981,30.0063982 L8.20959951,30.0063982 L8.20959951,20.3551988 C8.20959951,20.0727988 7.98799952,19.8519988 7.70479954,19.8519988 Z" id="Shape" fill="#000000" opacity="0.699999988"></path>
                </g>
            </g>
        </g>
    </g>
</svg>